<svg xmlns="http://www.w3.org/2000/svg" viewBox="0 0 24 24" fill="currentColor">
  <path d="M23.997 6.124a9.23 9.23 0 0 0-.24-1.4c-.145-.6-.383-1.18-.729-1.74-.443-.673-1.021-1.265-1.738-1.77a8.717 8.717 0 0 0-1.673-.93 9.17 9.17 0 0 0-1.955-.48 11.016 11.016 0 0 0-1.643-.117H8.778c-.614 0-1.243.04-1.888.117a9.17 9.17 0 0 0-1.955.48 8.717 8.717 0 0 0-1.673.93c-.717.505-1.295 1.097-1.738 1.77-.346.56-.584 1.14-.729 1.74a9.23 9.23 0 0 0-.24 1.4c-.053.548-.08 1.102-.08 1.661v8.43c0 .56.027 1.113.08 1.662.056.48.137.96.24 1.399.145.6.383 1.181.729 1.741.443.673 1.021 1.265 1.738 1.77.517.389 1.086.704 1.673.93a9.17 9.17 0 0 0 1.955.48c.645.077 1.274.117 1.888.117h6.24c.614 0 1.243-.04 1.888-.117a9.17 9.17 0 0 0 1.955-.48 8.717 8.717 0 0 0 1.673-.93c.717-.505 1.295-1.097 1.738-1.77.346-.56.584-1.14.729-1.74.103-.44.184-.92.24-1.4.053-.549.08-1.102.08-1.661v-8.43c0-.56-.027-1.113-.08-1.662zM9.5 15.5a2 2 0 1 1-4 0 2 2 0 0 1 4 0zm.5-2.5V7c0-.55.45-1 1-1h5.5c.55 0 1 .45 1 1s-.45 1-1 1H12v2h3.5c.55 0 1 .45 1 1s-.45 1-1 1H12v3.5a2 2 0 1 1-2-2z"/>
</svg>
